<?xml version="1.0" encoding="UTF-8"?>
<svg width="105px" height="128px" viewBox="0 0 105 128" version="1.1" xmlns="http://www.w3.org/2000/svg" xmlns:xlink="http://www.w3.org/1999/xlink">
    <!-- Generator: Sketch 56.3 (81716) - https://sketch.com -->
    <title>Combined Shape</title>
    <desc>Created with Sketch.</desc>
    <g id="starter-build" stroke="none" stroke-width="1" fill="none" fill-rule="evenodd">
        <g id="streamer-pc-2" transform="translate(-1087.000000, -2292.000000)" fill="#51007A">
            <path d="M1185.90909,2411.27273 L1185.90909,2300.72727 C1185.90909,2299.12727 1184.6,2297.81818 1183,2297.81818 L1171.36364,2297.81818 L1171.36364,2303.63636 C1171.36364,2305.23636 1170.05455,2306.54545 1168.45455,2306.54545 L1110.27273,2306.54545 C1108.67273,2306.54545 1107.36364,2305.23636 1107.36364,2303.63636 L1107.36364,2297.81818 L1095.72727,2297.81818 C1094.12727,2297.81818 1092.81818,2299.12727 1092.81818,2300.72727 L1092.81818,2411.27273 C1092.81818,2412.87273 1094.12727,2414.18182 1095.72727,2414.18182 L1183,2414.18182 C1184.6,2414.18182 1185.90909,2412.87273 1185.90909,2411.27273 Z M1183,2292 C1187.8,2292 1191.72727,2295.92727 1191.72727,2300.72727 L1191.72727,2411.27273 C1191.72727,2416.07273 1187.8,2420 1183,2420 L1095.72727,2420 C1090.92727,2420 1087,2416.07273 1087,2411.27273 L1087,2300.72727 C1087,2295.92727 1090.92727,2292 1095.72727,2292 L1113.18182,2292 L1113.18182,2300.72727 L1119,2300.72727 L1119,2292 L1124.81818,2292 L1124.81818,2300.72727 L1130.63636,2300.72727 L1130.63636,2292 L1136.45455,2292 L1136.45455,2300.72727 L1142.27273,2300.72727 L1142.27273,2292 L1148.09091,2292 L1148.09091,2300.72727 L1153.90909,2300.72727 L1153.90909,2292 L1159.72727,2292 L1159.72727,2300.72727 L1165.54545,2300.72727 L1165.54545,2292 L1183,2292 Z M1125.02274,2353.88004 L1125.02274,2365 L1121.57711,2365 L1121.57711,2351.02273 L1128.69064,2351.02998 C1131.71204,2351.02998 1132.74129,2353.21887 1132.74129,2355.2071 L1132.74129,2365 L1129.30189,2365 L1129.30189,2355.22542 C1129.30189,2354.39255 1128.88223,2353.88005 1127.86998,2353.88005 L1125.02274,2353.88005 L1125.02274,2353.88004 Z M1148.79402,2353.75 C1147.59143,2353.75 1146.66069,2354.38984 1146.27196,2355.25845 C1146.04161,2355.77997 1145.96242,2356.17965 1145.93532,2356.81818 L1151.34826,2356.81818 C1151.27881,2355.25845 1150.59537,2353.75 1148.79402,2353.75 Z M1145.98372,2359.27244 C1145.98372,2361.06797 1147.08024,2362.38948 1149.03794,2362.38948 C1150.5611,2362.38948 1151.31812,2361.95982 1152.19882,2361.06797 L1154.32876,2363.13811 C1152.96497,2364.50863 1151.53394,2365.34091 1149.01262,2365.34091 C1145.71146,2365.34091 1142.55224,2363.50862 1142.55224,2358.16851 C1142.55224,2353.60575 1145.31054,2351.02273 1148.93501,2351.02273 C1152.60887,2351.02273 1154.73134,2354.04682 1154.73134,2358.00797 L1154.73134,2359.27244 L1145.98372,2359.27244 Z M1139.48277,2365 C1136.64977,2365 1135.44776,2362.9972 1135.44776,2361.01905 L1135.44776,2347.27273 L1138.91985,2347.27273 L1138.91985,2351.07219 L1141.53731,2351.07219 L1141.53731,2353.92295 L1138.91985,2353.92295 L1138.91985,2360.79802 C1138.91985,2361.60816 1139.29653,2362.05785 1140.12479,2362.05785 L1141.53731,2362.05785 L1141.53731,2365 L1139.48277,2365 Z M1118.19403,2349.31818 L1114.81095,2349.31818 L1114.81095,2345.90909 L1118.19403,2345.90909 L1118.19403,2349.31818 Z M1118.53234,2365.34091 C1116.00791,2365.08711 1115.14925,2363.48509 1115.14925,2361.63643 L1115.1529,2351.36364 L1118.53234,2351.36364 L1118.53234,2365.34091 Z M1160.48259,2365 C1157.95648,2364.74563 1157.0995,2363.14519 1157.0995,2361.29798 L1157.0995,2345.56818 L1160.48259,2345.56818 L1160.48259,2365 Z M1172.69972,2347.74405 C1174.4074,2356.0848 1168.5259,2362.89872 1162.79105,2365 L1162.79105,2361.28224 C1167.55567,2358.44069 1170.2235,2353.49702 1169.38352,2348.75534 C1166.87285,2334.41544 1139.3159,2334.35652 1119.88557,2344.3575 L1119.88557,2343.04825 C1139.33565,2331.18923 1169.51126,2332.17485 1172.69972,2347.74405 Z M1137.31633,2375.11747 C1145.57987,2374.35107 1155.50167,2371.39381 1161.49751,2367.81771 L1161.49751,2372.97846 C1154.88971,2376.61107 1145.385,2378.94989 1138.12316,2379.6598 C1119.76905,2381.44638 1107.74412,2376.06641 1105.49704,2366.57283 C1103.73651,2359.16936 1106.79461,2352.90368 1112.42934,2347.95455 L1112.42934,2349.78117 C1109.29926,2353.19709 1106.93982,2358.69637 1107.89942,2363.88411 C1109.85988,2374.40756 1123.87093,2376.36234 1137.31633,2375.11747 Z" id="Combined-Shape"></path>
        </g>
    </g>
</svg>